<?xml version="1.0" encoding="UTF-8"?><svg id="Layer_2" xmlns="http://www.w3.org/2000/svg" viewBox="0 0 346.01 346.01"><defs><style>.cls-1{fill:#37533a;}.cls-1,.cls-2,.cls-3,.cls-4,.cls-5{stroke-width:0px;}.cls-2{fill:#23a578;}.cls-3{fill:#fff;}.cls-4{fill:#fbf6f6;}.cls-5{fill:#eb6782;}</style></defs><g id="Layer_1-2"><rect class="cls-3" width="346.01" height="346.01"/><path class="cls-5" d="m143.08,204.26c-.28.64-.63,1.19-1.47,1.08.16-.8.57-1.27,1.47-1.08Z"/><path class="cls-5" d="m141.63,205.32c-.17.57-.48.95-1.15.81.17-.58.5-.92,1.15-.81Z"/><path class="cls-5" d="m211.05,192.8c.17-.29.41-.44.75-.35-.15.33-.4.45-.75.35Z"/><path class="cls-5" d="m125.25,151.73c-.17.09-.35.18-.52.27.08-.28.25-.38.52-.27Z"/><path class="cls-5" d="m215.46,117.5c-.07-.04-.13-.08-.2-.12.06.05.11.1.17.14,0,0,.03-.03.03-.03Z"/><path class="cls-5" d="m224.51,167.98c-.06.31-.24.48-.58.46.19-.15.38-.31.58-.46Z"/><path class="cls-5" d="m128.21,64.06c.07.1.14.2.21.3-.11-.06-.21-.13-.32-.19,0,0,.11-.11.11-.11Z"/><path class="cls-5" d="m127.75,55.71c.17-.21.34-.43.51-.64-.04.32-.15.58-.51.64Z"/><path class="cls-2" d="m232.4,197.14c6.98-.62,13.9-.28,20.73,1.38,1.87.45,3.6,1.31,5.22,2.33,3.33,2.09,4.55,4.96,3.44,8.74-1.26,4.3-3.04,8.39-5.31,12.29-2.93,5.02-2.7,10.2-.27,15.35,1.75,3.73,3.46,7.42,3.24,11.74-.2,4-2.61,7.7-6.35,9.26-4.65,1.95-9.41,1.66-14.23.84-21.05-3.57-41.81-2.31-62.48,3.03-27.54,7.13-52.03,20.38-75.24,36.38-3.15,2.17-6.4,4.19-9.63,6.23-.84.53-1.75.97-2.68,1.32-1.13.43-2.29.5-3.25-.46-1.03-1.04-.58-2.1-.05-3.2,3.84-7.93,7.59-15.9,11.49-23.79,4.16-8.42,8.11-16.94,12.95-25.01,4.56-7.61,9.63-14.72,17.19-19.69.74-.12,1.44-.27,2.12-.65,9.51-5.3,19.4-9.82,29.44-13.99.68-.28,1.46-.43,1.72-1.28,4.02-.44,7.54-2.42,11.25-3.75,6.57-2.34,13.24-4.36,19.87-6.51,4.8-1.56,9.88-2.21,14.44-4.49,5.53-1.59,11.17-2.73,16.79-3.96,3.19-.7,6.51-.87,9.58-2.11Z"/><path class="cls-2" d="m224.51,167.98c.06-.68,1.05-1.26.36-1.96-.54-.56-1.22.02-1.82.15-.92.2-1.83.47-2.75.71,2.53-6.37,2.31-12.64-.6-18.83,3.98-5.92,5.73-12.23,2.91-19.14-1.71-4.19-3.86-8.17-7.15-11.4l-.03.03c2.11.13,3.93,1.18,5.82,1.95,5.88,2.4,12.08,3.61,18.26,4.83,7.35,1.45,14.14,4.02,20.1,8.85-3.08-6.6-8.11-11.92-12.05-18,3.86,1.73,7.04,4.46,10.59,6.6,1.56.94,3.17,1.77,4.75,2.67,1.26.72,2.5.83,3.75,0,1.67-1.09,2.95-1.05,4.51.58,2.25,2.34,5.17,3.57,8.58,3.02,2.25,1.32,4.28-.35,6.42-.47-2.69,3.07-6.21,5.19-9.16,7.98-2.92,2.77-2.98,2.7.26,5.16,8.85,6.72,11.29,16.86,6.11,25.44-1.3,2.15-2.86,4.1-4.75,5.74-8.36,7.3-17.99,11.46-29.2,11.55-3.82.03-7.08-1.48-9.92-3.97,6.57-1.56,12.68-4.05,17.41-9.09,4.87-5.2,6.73-11.29,4.33-18.15-2.82-8.06-8.59-13.43-16.35-16.76-.05-.04-.09-.09-.15-.12-.02,0-.07.05-.1.07.09,0,.18,0,.27,0-.5.96.38,1.52.71,2.2,2.33,4.74,2.52,11.52.25,15.73-2.63-8.42-8.45-13.88-15.97-18.53.31.97.35,1.49.61,1.86,2.73,3.96,4.15,8.46,5.53,12.99,3.07,10.07.97,18.65-7.19,25.58-1.97,1.67-4.18,1.94-7.02,2.13,1.99-2.91,3.09-5.66,3.96-8.52.52-1.71-.36-1.29-1.27-.88Zm45.75,4.61c.67-.03.91,0,1.13-.06,9.5-2.26,14.37-11.03,11.62-21.04-1.29-4.72-3.63-8.72-8.12-11.11-.96-.51-1.94-.96-2.93.08-.88.92-1.24,1.73-.68,3.07,4.03,9.68,4.42,19.31-1.01,29.07Z"/><path class="cls-2" d="m196.91,175.74c1.43,1.05,2.41,2.44,3.29,3.98,1.44,2.49,1.44,2.81-1.36,3.77-4.83,1.66-9.73,1.46-14.62.2-.47-.12-.88-.43-1.62-.09,1.71,1.72,3.69,2.92,5.91,3.3,3.74.64,6.72,2.8,9.98,4.41,3.92,1.93,8.02,2.59,12.32,1.57-.39.66-1.84.16-1.63,1.48-3.52-.33-7.04-.67-10.96-1.04,1.84,3.59,4.56,6.05,6.84,8.83-2.96.63-5.95.41-8.93.24-13.75-.77-28.04-9.03-28.6-22.65-.08-1.83-1.92-1.79-3.3-1.92-1.37-.13-1.6.84-1.73,1.91-1.4,11.53-2.82,23.06-4.24,34.59-1.58-1.42-2.4-3.58-4.46-4.53-.9-.82-1.8-1.65-2.7-2.47-.33-2.61.11-5.06,1.41-7.36.33-.58,1.17-1.32.43-1.95-.73-.62-1.3.34-1.86.72-2.67,1.86-4.98,4.26-8.05,5.55-.03-1.22,1.08-1.58,1.76-2.21,4.16-3.81,8.24-7.69,11.86-12.03,2.9-3.48,4.31-7.61,5.38-11.9.54-2.17,1.03-4.36,1.61-6.51.81-2.99,1.36-3.24,4.16-2.09.44.18.86.54,1.38.23.31-1.43-1.64-2.95-.37-4,.82-.68,3.1-.33,3.65.57.99,1.61-1.82,2.15-1.83,3.75,3.29.63,6.32-1.82,5.47-4.4-.43-1.32-1.17-2.16-2.67-2.12-.73.02-1.51.1-2.06-.59,1.24.02,2.46.01,3.68-.37,1.65-.51,3.18.62,3.3,1.78.3,2.93,2.09,4.96,3.75,7.42-2.39.25-4.26-.79-6.45-1.01.85,2.48,3,3.39,4.83,4.62-1.23,1.47-.69,2.48.77,3.39,3.8,2.37,7.65,2.81,11.64.53,1.59-.91,2.69-2.36,4.01-3.56Zm-24.35.76c-3.23,5.02-2.68,8.23,1.83,11.52,1.13-4.05.66-7.87-1.83-11.52Z"/><path class="cls-2" d="m182.36,135.85c2.81.18,5.57.55,8.56,2.08-.85-2.38-2.02-4.05-3.13-5.74-5.88-8.98-12.75-17.18-19.85-25.21-.86-.97-1.69-1.8.09-2.62-.41.81-.08,1.4.51,1.97,7.66,7.49,14.87,15.39,21.65,23.68.08.1.27.11.74.29-3.95-6.89-9.21-12.48-13.99-18.75,1.78-.06,2.93.87,4.05,1.51,5.23,3,10.8,5.1,16.62,6.53,6.36,1.56,11.97,4.35,16.24,9.47.09.22.05.69.41.5.26-.13.08-.51-.18-.71-.72-5.22-3.86-9.08-7.32-12.7-1.93-2.03-4.11-3.82-6.23-5.76,1.02-.89,1.74-.2,2.47.2,2.18,1.19,4.35,2.42,6.53,3.61,6.02,3.28,9.15,9.97,7.97,17.01-1.01,6.03-6.1,11.15-12.66,12.1-9.32,1.34-17.54-2.03-25.84-6.45,1.27-.81,2.34-.81,3.35-1.02Z"/><path class="cls-2" d="m182.04,155.71c-1.05-.04-1.05.85-1.32,1.5-.29.73-.24,1.84-1.36,1.79-1.04-.05-2.03-.26-2.77-1.31-2.3-3.28-4.49-3.41-7.2-.58-1.51-.04-1.83-1.01-2.02-2.3-.45-2.98-4.14-5.09-8.17-4.78-2.91.22-4.4,1.96-4.59,5.32-.08,1.49-.22,2.97-.36,4.82-1.13-1.42-.13-3.36-1.73-4.46-.61,1.13-.3,2.49-1.17,3.41-.03-.13-.09-.26-.07-.36,1.06-5.57-1.33-9.21-6.03-12.12-4.99-3.09-9.81-6.5-14.31-10.33-2.92-2.49-5.22-5.52-7.81-8.29-.02-.06-.04-.12-.07-.17-.02-.02-.08-.02-.12-.02.08.05.15.1.23.16-.05.57-.09,1.13-.17,2.09-2.47-3.04-3.83-6.31-5.23-9.54-2.62-6.04-3.92-12.47-5.55-18.8-.13-.5-.39-1.26.29-1.54.72-.3.96.45,1.25.92,2.77,4.44,5.79,8.69,9.09,12.75,5.35,6.57,12.12,11.23,19.69,14.85,1.1.52,2.32.94,3.02,2.07-6.91-2.64-13.43-6.13-20.3-9.03.41.84,1.11,1.29,1.73,1.84,3.14,2.82,7.41,3.96,10.3,7.28,1.47,1.69,3.57,2.82,4.93,4.8,2.22,3.24,5.1,5.89,8.46,7.95,1.82,1.12,3.82,1.7,5.94,1.34,2.01-.35,3.79-1.13,4.19-3.48,5.46,3.75,10.91,7.51,16.39,11.23,1.57,1.07,3.22,2.02,4.83,3.03Z"/><path class="cls-2" d="m105.61,145.63c2.52-2.56,5.91-2.68,9.62-3.37-6.66-5.71-10.86-12.8-14.33-21.2,1.77,2.43,2.12,2.94,2.32,5.15.15,1.62,1.79,1.69,2.43,2.9,2.28,4.36,5.87,7.72,9.2,11.28,1.66,1.78,3.15,1.15,4.69.28,1.26-.72-.03-1.23-.41-1.65-2.96-3.27-5.75-6.65-8.06-10.42-2.92-4.77-5.12-9.86-6.85-15.16-.15-.45-.41-.93-.05-1.41,1.47.48,1.79,2.31,3.61,3.01-1.34-4.38-3.08-8.41-2.8-12.92,3.21,16.15,14.9,26.59,25.57,38.08-2.63.47-4.97-.33-7.36-.07.07.95,1.27.66,1.58,1.62-6.48.85-13.1,1.1-19.16,3.91Z"/><path class="cls-2" d="m216.03,151.48c.93,4.35-.78,7.68-4.05,10.38-.88.73-1.89,1.3-2.85,1.94-1.35-.55-2.59-1.29-3.68-2.27,1.15-1.76,1.99-3.58,1.14-5.74,3.32-1.05,6.22-3.02,9.43-4.32Z"/><path class="cls-2" d="m95.26,172.42c.76-2.45,2.19-4.63,2.79-7.16.75-3.14.49-6.06-1.03-8.93-2.06-3.88-4.86-7.27-7.15-11.22,4.52,2.29,8.91,5.51,14.09,1.84-.61,1.75,2.26,1.98,1.57,4.04-2.06-1.29-4.08-2.3-6.4-.41-1.33,1.09-1.92,1.88-1.26,3.66,2.2,5.94,1.59,11.68-1.66,17.13-.24.41-.36.95-.94,1.06Z"/><path class="cls-2" d="m112.47,204.37c.28-1.13-.61-1.23-1.3-1.36-1.86-.37-2.88-1.46-3.16-3.31-.32-2.05-1.34-3.32-3.5-3.87-2.45-.62-4.08-2.01-3.34-5.02.38-1.52-.02-3.11-.56-4.6,1.39,1.41,1.34,3.22,1.07,4.91-.33,2.1.48,2.7,2.45,3.05,2.79.49,5.4-.26,8.22-.65,0,1.39-1.14,1.36-1.84,1.68-2.39,1.11-2.22,2.95-1.64,5.04.6,2.15,2.22,2.5,3.9,2,2.09-.62,2.93.33,3.55,2,.29.78.6,1.55.86,2.34,2.08,6.17,4.18,7.49,10.61,6.56.05,1.18-.64,1.43-1.63,1.5-3.77.27-7.03-1.63-8.63-5.11-.45-.98-.73-2.04-1.22-3-.78-1.54-1.73-2.92-3.84-2.15Z"/><path class="cls-2" d="m261.29,106.02c-6.96-6.8-13.85-13.23-21.35-19.24,6.9.87,20.88,13.42,21.35,19.24Z"/><path class="cls-2" d="m124.63,114.04c.54-.2.96.07,1.38.35,6.85,4.56,13.97,8.6,21.74,11.39.22.08.42.23.48.55-8.98-2.01-17.23-5.35-23.57-12.32l-.03.03Z"/><path class="cls-2" d="m166.91,124.72c3.69-1.21,6.95-.67,9.55,2.41-5.1,3.69-5.62,3.55-9.55-2.41Z"/><path class="cls-2" d="m118.12,63.03c2.38-.49,4.46-1.49,6.54-2.84,1.83-1.18,1.16-3.65,3.08-4.47-1.39,2.86-1.52,5.66.47,8.33l-.11.11c-3.26-.95-6.59-1.37-9.99-1.13Z"/><path class="cls-2" d="m124.69,152.01c-1.33,1.19-3.01,1.67-4.64,2.23-1.45-.89-2.89.07-4.34.04-.97-.02-1.98.27-3.5-.65,4.6-.13,8.48-1.24,12.48-1.62Z"/><path class="cls-2" d="m223.97,168.41c-2.13,2.27-4.79,3.63-7.78,4.7.17-1.41,1.77-1.8,1.62-3.14,2.1-.33,4.15-.85,6.16-1.56Z"/><path class="cls-2" d="m107.84,80.25c1.38-1.64,1.51-3.77,2.23-5.66.34-.89.34-1.97,1.33-2.52-1.24,3.71-1.97,7.5-1.58,11.96-1.32-1.32-1.58-2.59-1.98-3.78Z"/><path class="cls-2" d="m112.54,156.47c.21,1.86.42,3.73.63,5.59-.61.58-1.29,1.71-1.36-.33-.02-.65-1.04.02-1.51-.62,1.43-1.18,1.71-2.96,2.24-4.64Z"/><path class="cls-2" d="m94.47,182.89c-2.67-1.19-3.46-3-2.22-5.43.89-1.74,1.63-3.59,3.01-5.05.01,1.52-1.12,2.52-1.73,3.75-1.7,3.39-1.66,3.95.94,6.74Z"/><path class="cls-2" d="m165.95,44.22c1.2-.4,2.56.39,3.69-.51,1.66,0,3.18.54,4.69,1.23-2.79-.24-5.58-.48-8.38-.72Z"/><path class="cls-2" d="m104.18,112.02c-.73-.19-.6-.73-.5-1.26.41.32.73.68.5,1.26Z"/><path class="cls-2" d="m76.72,178.35c-2.75-7.37-2.14-14.4,2.18-21.04.83.66.25,1.47.21,2.21-.73,2.38-1.36,4.8-1.58,7.28-.14,1.6-.66,3.31.63,4.75-.72,2.22-.25,4.69-1.44,6.8Z"/><path class="cls-2" d="m78.16,171.55c-1.28-1.44-.77-3.15-.63-4.75.22-2.48.84-4.9,1.58-7.28.34,4.06.02,8.07-.95,12.03Z"/><path class="cls-2" d="m90.81,141.87c-2.71-2.21-3.69-5.28-3.99-8.67,1.33,2.89,2.66,5.78,3.99,8.67Z"/><path class="cls-2" d="m97.84,91.17c.28,3.21.56,6.43.85,9.64-1.47-3.11-1.25-6.37-.85-9.64Z"/><path class="cls-1" d="m182.36,135.85c-1.97-2.91-3.93-5.81-5.9-8.72-2.61-3.08-5.86-3.62-9.55-2.41-7.41-9.17-14.34-18.7-21.43-28.11-5.85-7.76-11.54-15.64-18.63-22.36-2.46-2.33-4.97-4.62-8.45-5.39-3.21-.71-5.34.25-7.01,3.2-.98.56-.99,1.64-1.33,2.52-.72,1.9-.85,4.02-2.23,5.66-.55-1.01-1.04-2.06-1.66-3.02-.54-.84-1.25-1.63-2.4-1.42-1.01.19-1.44,1.02-1.75,1.92-1.51,4.38-1.81,8.94-1.6,13.49.3,6.63,1.17,13.19,3.24,19.54-.1.52-.23,1.06.5,1.26,0,0,0,0,0,0-.36.48-.1.96.05,1.41,1.73,5.3,3.93,10.39,6.85,15.16,2.31,3.77,5.1,7.16,8.06,10.42.38.42,1.67.93.41,1.65-1.54.87-3.03,1.5-4.69-.28-3.33-3.56-6.92-6.92-9.2-11.28-.64-1.21-2.28-1.28-2.43-2.9-.2-2.22-.55-2.72-2.32-5.15,3.48,8.4,7.67,15.49,14.33,21.2-3.71.69-7.11.81-9.62,3.37-.55.44-1.1.88-1.66,1.32-5.18,3.67-9.57.45-14.09-1.84,2.29,3.94,5.09,7.34,7.15,11.22,1.53,2.87,1.78,5.79,1.03,8.93-.6,2.53-2.04,4.71-2.79,7.16,0,0,0,0,0,0-1.38,1.46-2.12,3.31-3.01,5.05-1.25,2.43-.46,4.23,2.22,5.43,1.95,1.27,4.43,1.57,6.14,3.31.54,1.49.94,3.09.56,4.6-.75,3.01.89,4.4,3.34,5.02,2.16.55,3.18,1.82,3.5,3.87.29,1.85,1.3,2.95,3.16,3.31.68.13,1.58.23,1.3,1.36-5.71,3.27-11.39,2.21-16.94-.34-4.51-2.08-7.91-5.42-10.09-9.95-.23-.48-.27-1.15-1.17-1.43-.44,5.06,1.14,9.24,4.47,12.92,3.34,3.7,7.8,5.1,12.7,6.19-10.03,6.06-22.54,1.72-25.54-8.89-.37-1.32-1.13-1.98-2.35-2.6-6.71-3.43-11.45-8.49-12.58-16.24-.7-4.82.82-9.23,3.14-13.34,1.67-2.96,3.67-5.73,5.43-8.64,1.56-2.59,2.17-5.55,3.12-8.38.3-.91.04-1.55-.62-2.22-4.23-4.31-4.95-9.56-4.07-15.26.87-5.63,2.89-10.9,5-16.14.61-1.52.77-2.9.38-4.55-1.74-7.34-.34-14.22,4.7-19.76,7.18-7.88,12.96-16.84,19.96-24.8,8.02-9.12,16.6-17.71,28.12-22.57,11.5-4.85,23.47-6.41,35.84-5.45,2.56.2,5.12.53,7.68.8-1.13.9-2.49.11-3.69.51-9.92-.25-19.7.47-28.92,4.55-3.34,1.48-6.5,3.28-8.77,6.29-.17.22-.34.43-.51.64,0,0-.01.01-.01.01-1.92.82-1.25,3.29-3.08,4.47-2.09,1.35-4.16,2.35-6.54,2.84-.8.09-1.6.41-1.58,1.27.03,1.07,1.12,1.34,1.9,1.75,9.17,4.8,17.87,10.28,25.79,16.99,5.19,4.4,10.25,8.94,15.04,13.76,1.31,1.31,1.9,1.68,3.42-.1,3.34-3.91,7.97-6.3,12.7-9.66-.84,4.55-1.28,8.5-2.38,12.26-.67,2.31-3.3,3.36-4.97,5.06-1.78.81-.96,1.64-.09,2.62,7.1,8.02,13.97,16.23,19.85,25.21,1.11,1.69,2.28,3.36,3.13,5.74-2.98-1.53-5.75-1.9-8.56-2.08Zm-84.52-44.68c-.41,3.28-.62,6.53.85,9.64.09.75-.26,1.67,1.12,2.21-.7-4.7-1.25-9.22-1.47-13.79-.64.62-.57,1.28-.5,1.93Zm-19.68,80.38c.97-3.96,1.29-7.96.95-12.02.03-.75.62-1.55-.21-2.21-.77-1.25-2.26-1.6-3.24-2.61-.73-.75-1.13-.13-1.43.54-3.08,6.92-5.04,14.05-3.72,21.69.59,3.44,2.3,6.35,5.17,8.92.49-2.76,1.31-5.05,1.04-7.5,1.19-2.12.72-4.59,1.44-6.8Zm-5.05-21.16c1.28-3.34,3.23-21.67,2.74-25.27-7.86,6.62-9.25,18.65-2.74,25.27Zm12.51-60.52c-8.38,5.18-12.8,14.07-9.03,19.85,2.98-6.55,5.9-12.96,9.03-19.85Zm-6,66.62c.23-3.92-.12-7.42-.6-11.01-.31.17-.51.21-.57.32-.43.89-.83,1.79-1.24,2.69q-2.06,4.57,2.41,8Zm11.19-14.61c-1.33-2.89-2.66-5.78-3.99-8.67.3,3.39,1.28,6.46,3.99,8.67Z"/><path class="cls-1" d="m224.51,167.98c.91-.41,1.79-.84,1.27.88-.87,2.86-1.97,5.61-3.96,8.52,2.85-.19,5.06-.46,7.02-2.13,8.17-6.93,10.26-15.51,7.19-25.58-1.38-4.53-2.8-9.03-5.53-12.99-.26-.37-.3-.89-.61-1.86,7.52,4.65,13.34,10.11,15.97,18.53,2.27-4.21,2.08-10.99-.25-15.73-.33-.68-1.21-1.23-.71-2.2l-.02.04c7.77,3.33,13.54,8.7,16.35,16.76,2.4,6.86.54,12.95-4.33,18.15-4.72,5.04-10.84,7.53-17.41,9.09-1-.58-2-1.16-3-1.75-3.49-2.05-8.15-1.66-11.21.91-1.09.92-.18,1.49.38,1.97,2.66,2.28,5.82,2.06,9,1.68.96-.11,2.23-1.08,2.78-.37.69.89-.15,2.18-.62,3.19-1.96,4.15-5.69,5.82-9.85,6.82-2.89.69-5.95.92-8.59-.25-2.6-1.15-4.53-.64-6.58.78-.34-.09-.58.06-.75.35-.09,0-.17.02-.24.06-4.3,1.02-8.4.36-12.32-1.57-3.26-1.61-6.24-3.77-9.98-4.41-2.21-.38-4.19-1.58-5.91-3.3.75-.33,1.15-.03,1.62.09,4.88,1.26,9.79,1.46,14.62-.2,2.8-.96,2.8-1.28,1.36-3.77-.88-1.53-1.86-2.93-3.29-3.98.41-.68.88-1.33.76-2.46-5.6,3.03-11.22,4.19-17.19,2.11-1.83-1.23-3.98-2.14-4.83-4.62,2.19.21,4.06,1.26,6.45,1.01-1.66-2.46-3.45-4.49-3.75-7.42-.12-1.16-1.66-2.3-3.3-1.78-1.22.38-2.44.39-3.68.37-2.28-1.39-2.76-3.4-1.97-5.83,2.71-2.83,4.9-2.7,7.2.58.74,1.05,1.73,1.26,2.77,1.31,1.11.05,1.07-1.06,1.36-1.79.26-.66.26-1.54,1.32-1.5,7.73,4.62,15.47,9.2,23.92,12.44,3.82,1.46,7.73,2.3,11.85,1.83.16,1.34-1.45,1.73-1.62,3.14,2.99-1.07,5.65-2.43,7.78-4.7,0,0-.04.03-.04.03.33.02.51-.15.58-.46h0Z"/><path class="cls-1" d="m153.8,209.77c2.05.95,2.88,3.11,4.45,4.53.73,1.21,1.47,2.43,2.2,3.65-.26.85-1.03,1-1.71,1.28-10.05,4.17-19.93,8.7-29.44,13.99-.68.38-1.38.53-2.12.65,4.06-4.47,8.89-8.09,13.33-12.14,4.41-4.01,9.2-7.6,13.29-11.96Z"/><path class="cls-1" d="m160.82,141.46c-.41,2.35-2.19,3.14-4.19,3.48-2.12.37-4.12-.22-5.94-1.34-3.37-2.07-6.24-4.71-8.46-7.95-1.35-1.98-3.45-3.11-4.93-4.8-2.89-3.32-7.16-4.45-10.3-7.28-.61-.55-1.31-1.01-1.73-1.84,6.88,2.9,13.39,6.39,20.3,9.03,5.46,3.04,10.52,6.63,15.25,10.7Z"/><path class="cls-1" d="m205.06,202.13c-2.28-2.78-5-5.23-6.84-8.83,3.92.37,7.44.71,10.96,1.04,7.28.8,14.56,1.6,21.84,2.41.47.05,1-.07,1.37.38-3.07,1.24-6.39,1.41-9.58,2.11-5.62,1.23-11.26,2.37-16.79,3.96.07-.71-.42-.91-.96-1.08Z"/><path class="cls-1" d="m219.7,148.04c2.91,6.19,3.13,12.47.6,18.83-4.12.42-7.7-1.1-11.16-3.07.95-.64,1.96-1.22,2.85-1.94,3.27-2.7,4.98-6.03,4.05-10.38,1.19-1.18,2.78-1.93,3.67-3.44Z"/><path class="cls-1" d="m143.04,204.26c3.07-1.29,5.38-3.68,8.05-5.55.56-.39,1.13-1.34,1.86-.72.74.63-.1,1.37-.43,1.95-1.3,2.31-1.74,4.76-1.41,7.36-2.44-1.82-4.6-1.87-7.38-.08-3.86,2.48-7.94,4.76-12.42,6.07-.45.13-1.15.81-1.43-.09-.2-.66.57-.77,1.04-1.02,3.34-1.78,6.69-3.53,9.55-6.05.67.14.98-.24,1.15-.81,0,0-.02.01-.02.01.83.11,1.18-.44,1.47-1.08h-.04Z"/><path class="cls-1" d="m286.15,127.56c-2.14.12-4.17,1.79-6.42.47,3.15-1.78,5.68-4.08,5.72-7.99.02-2.5-1.05-4.64-3.1-6.2,1.96-.47,5.24,1.95,6.66,4.9,1.48,3.07.47,6.15-2.87,8.81Z"/><path class="cls-1" d="m125.25,151.73c.37-.17.76-.5,1.14-.22.52.39-.03.68-.19,1-2.13,4.15-6.19,6.23-9.69,8.87-.87.66-2.35-.25-3.33.68-.21-1.86-.42-3.73-.63-5.59.28-1.04,1.09-1.09,1.96-1.06,1.94.07,3.76-.5,5.55-1.16,1.63-.56,3.3-1.04,4.64-2.23,0,0,.04-.02.04-.02.17-.09.35-.18.52-.27Z"/><path class="cls-1" d="m206.61,155.8c.85,2.16,0,3.98-1.14,5.74-1.89-1.11-3.22-2.81-4.88-4.6,2.17-.41,4.1-.78,6.03-1.15Z"/><path class="cls-1" d="m244.9,135.42c-.09,0-.18,0-.27,0,.04-.03.08-.08.1-.07.06.03.1.08.15.12,0,0,.02-.04.02-.04Z"/><path class="cls-1" d="m172.56,176.5c2.49,3.65,2.96,7.47,1.83,11.52-4.52-3.28-5.06-6.5-1.83-11.52Z"/><path class="cls-4" d="m123.17,127.96c-.08-.05-.15-.1-.23-.16.04,0,.1,0,.12.02.04.05.05.11.07.17,0,0,.03-.04.03-.04Z"/></g></svg>